<?xml version="1.0"?>
<svg xmlns="http://www.w3.org/2000/svg" viewBox="0 0 64 64" width="512" height="512"><g id="picture"><path d="M32.238,36.4A1,1,0,0,0,33,36.75h0a1,1,0,0,0,.761-.352l2.117-2.485,6.36,7.482a1,1,0,0,0,1.524,0s9.012-10.6,9.023-10.618a6.009,6.009,0,0,0,.665-6.128,5.678,5.678,0,0,0-4.836-3.381,6.656,6.656,0,0,0-4.651,1.509,6.016,6.016,0,0,0-.7-3.5,5.631,5.631,0,0,0-4.64-3c-.146-.012-.306-.023-.465-.023A6.57,6.57,0,0,0,33,18.736a6.57,6.57,0,0,0-5.16-2.486c-.159,0-.319.011-.447.022a5.685,5.685,0,0,0-4.847,3.384,6.011,6.011,0,0,0,.7,6.161Zm16.24-13.134a3.709,3.709,0,0,1,3.152,2.216,4.011,4.011,0,0,1-.423,4.069L43,39.2,34.809,29.57a4.012,4.012,0,0,1-.439-4.091,3.709,3.709,0,0,1,3.154-2.216c.1-.007.209-.011.315-.011a4.581,4.581,0,0,1,4.238,2.826,1,1,0,0,0,1.846,0A4.6,4.6,0,0,1,48.478,23.263ZM24.366,20.485a3.718,3.718,0,0,1,3.179-2.218c.094-.009.194-.017.295-.017a4.573,4.573,0,0,1,4.236,2.824,1,1,0,0,0,1.848,0A4.573,4.573,0,0,1,38.16,18.25c.1,0,.2.008.314.018a3.673,3.673,0,0,1,3.033,1.959,4.024,4.024,0,0,1,.455,2.471,6.579,6.579,0,0,0-4.123-1.446c-.152,0-.3.006-.451.016a5.679,5.679,0,0,0-4.838,3.381,6.027,6.027,0,0,0,.7,6.172l1.317,1.549L33,34.207l-8.194-9.642A4,4,0,0,1,24.366,20.485Z"/><path d="M42,14h1v1a1,1,0,0,0,2,0V14h1a1,1,0,0,0,0-2H45V11a1,1,0,0,0-2,0v1H42a1,1,0,0,0,0,2Z"/><path d="M47,16H46a1,1,0,0,0,0,2h1v1a1,1,0,0,0,2,0V18h1a1,1,0,0,0,0-2H49V15a1,1,0,0,0-2,0Z"/><path d="M28,40h1a1,1,0,0,0,0-2H28V37a1,1,0,0,0-2,0v1H25a1,1,0,0,0,0,2h1v1a1,1,0,0,0,2,0Z"/><path d="M33,42H32V41a1,1,0,0,0-2,0v1H29a1,1,0,0,0,0,2h1v1a1,1,0,0,0,2,0V44h1a1,1,0,0,0,0-2Z"/><path d="M52,54a1,1,0,0,0,1-1V50h3a1,1,0,0,0,1-1V7a1,1,0,0,0-1-1H20a1,1,0,0,0-1,1v3H16a1,1,0,0,0-1,1v3H12a1,1,0,0,0-1,1v3H8a1,1,0,0,0-1,1V61a1,1,0,0,0,1,1H44a1,1,0,0,0,1-1V58h3a1,1,0,0,0,1-1V54ZM21,8H55V48H21Zm-4,4h2V49a1,1,0,0,0,1,1H51v2H17ZM43,60H9V20h2V57a1,1,0,0,0,1,1H43Zm4-4H13V16h2V53a1,1,0,0,0,1,1H47Z"/><path d="M7,13a1,1,0,0,0,0-2H6V10a1,1,0,0,0-2,0v1H3a1,1,0,0,0,0,2H4v1a1,1,0,0,0,2,0V13Z"/><path d="M7,6H8V7a1,1,0,0,0,2,0V6h1a1,1,0,0,0,0-2H10V3A1,1,0,0,0,8,3V4H7A1,1,0,0,0,7,6Z"/><path d="M57,58H56V57a1,1,0,0,0-2,0v1H53a1,1,0,0,0,0,2h1v1a1,1,0,0,0,2,0V60h1a1,1,0,0,0,0-2Z"/><path d="M61,51H60V50a1,1,0,0,0-2,0v1H57a1,1,0,0,0,0,2h1v1a1,1,0,0,0,2,0V53h1a1,1,0,0,0,0-2Z"/></g></svg>
